<svg id="Layer_1" data-name="Layer 1" xmlns="http://www.w3.org/2000/svg" viewBox="0 0 799.19 441.83"><defs><style>.cls-1{fill:#fff;}</style></defs><title>logo</title><path class="cls-1" d="M527.15,270.77c3.42.7,6.12,2.71,8.71,4.56,3.94,2.82,6.05,7.21,7.37,11.86.56,2,1.48,3.89,1.06,6.08-.31,1.62,1.47,2.81,1,4.59-1.52,5.69-1.66,11.67-4.93,17-3.12,5.07-6.85,9.45-12,12.08-4.7,2.38-9.7,4.24-15.28,4.18-15.33-.17-30.66-.06-46-.07a2.7,2.7,0,0,1-.61-.2V315.34c1-.76,2.36-.28,3.62-.29,10.16,0,20.33-.24,30.49.07a53.13,53.13,0,0,0,13.54-1.29c6.67-1.55,12.07-4.61,13.24-12.63.82-5.59.52-7.42-1-11.8-1.57-4.62-5-6.94-9-8.24A35.87,35.87,0,0,0,506.19,279c-13.16.05-26.32,0-39.7,0V262h19.4c6.83,0,13.67-.22,20.49.1a26.2,26.2,0,0,0,8-1.29,10.27,10.27,0,0,0,6.87-6.23c.17-.43.64-.74,1-1.11v-9c-1.06-.45-1.1-1.61-1.35-2.43-.85-2.78-3.4-4.14-5.44-4.86-3.18-1.12-6.52-2.28-10.1-2.24-11.66.11-23.33,0-35,0h-4V218h4.35c10.66,0,21.33.14,32-.09,3-.07,5.67,1.13,8.59,1.11s5.49,1.13,8.17,2c5.87,1.87,11.19,4.74,14.91,9.74a26.6,26.6,0,0,1,4,8.34c1.35,4.53.91,9.08.85,13.61-.05,4.16-2.28,7.81-4.46,11.09A20.73,20.73,0,0,1,527.15,270.77Z" transform="translate(-33.4 -34.09)"/><path class="cls-1" d="M594.38,235V218h26c3,0,6,0,9,0a64.59,64.59,0,0,1,20.16,3.25c6.11,2,12.42,4.45,17,9.55,4,1.82,6.19,5.61,8.66,8.86a41.3,41.3,0,0,1,7.06,13.52c1.57,5.48,3.5,10.92,2.93,16.74-.14,1.48,1.22,2.23,1.07,3.59-.93,8.62-1.46,17.3-5,25.41A54.64,54.64,0,0,1,670,315.74,51,51,0,0,1,647,329a45.49,45.49,0,0,1-12.65,2.07c-12.49-.11-25,0-37.47,0h-2.54V315h4.26c8.83,0,17.66-.16,26.48.05a68,68,0,0,0,18.63-2.14,26.27,26.27,0,0,0,7.51-3.51,37.68,37.68,0,0,0,16-21.73c1.46-4.95,2.81-12.18,1.83-16.12-.62-2.49-.43-5-1.23-7.45A83.35,83.35,0,0,0,662.25,251a4.21,4.21,0,0,0-.76-1.18c-3.52-3.17-6.29-7.14-10.51-9.57a42,42,0,0,0-11.22-4.36c-4.1-1-8.09-.74-12.12-.79C616.66,235,605.68,235,594.38,235Z" transform="translate(-33.4 -34.09)"/><path class="cls-1" d="M832.6,331h-18c-2.09-4.69-4.19-9.47-6.35-14.23-3.44-7.57-6.95-15.1-10.4-22.67q-5-10.93-9.88-21.88c-2.59-5.76-5.18-11.51-7.67-17.3-.36-.83-1.08-1.2-1.5-1.9-3.18,5.49-5.23,11.48-8,17.14-3.32,6.76-6.31,13.7-9.43,20.57-3.56,7.85-7.25,15.65-10.66,23.56-2.13,4.94-5,9.58-6.41,14.82-.2.74-.8,1-1.26,1.72H725c1.5-3.29,3-6.3,4.27-9.37,2.91-6.79,6.88-13.1,9.23-20.16a50.6,50.6,0,0,1,2.72-5.37c3.1-6.54,6.3-13,9.19-19.67,2.09-4.81,4.68-9.38,6.77-14.18,4.25-9.74,9-19.25,13.31-29,2.57-5.79,5.61-11.32,8.21-17.34,2.86,3.78,4.56,8,6.35,12.05,1,2.26,2.09,4.45,3.14,6.69,3.15,6.68,6.23,13.4,9.18,20.17,2.1,4.81,4.76,9.37,6.74,14.19,2.23,5.44,5,10.56,7.42,15.91,4.06,9.15,8.4,18.17,12.6,27.25,2.46,5.31,4.92,10.62,7.59,15.83C832.28,328.93,831.95,329.76,832.6,331Z" transform="translate(-33.4 -34.09)"/><path class="cls-1" d="M244.47,330.87H226.56c-2.54-2.11-2.82-5.66-4.17-8.56-4.2-9.08-8.46-18.14-12.57-27.26-3-6.74-6.2-13.42-9.09-20.21-1.57-3.7-3.71-7.14-5-10.92s-3.47-7.19-4.86-11a11.62,11.62,0,0,0-3.46,5.75,49.66,49.66,0,0,1-2.17,5.11c-3.86,8.39-7.78,16.76-11.45,25.23-3.37,7.77-6.95,15.44-10.54,23.11-2.87,6.13-5.47,12.39-8.24,18.72H136.92c1.48-2.56,2.07-5.06,3.23-7.43,3.57-7.33,7-14.75,10.31-22.2,2.14-4.79,4.72-9.36,6.77-14.18,4.1-9.64,8.79-19,13.08-28.55,2.4-5.35,5.43-10.45,7.57-15.85,1.72-4.34,4.38-8.18,5.81-12.58s3.84-8.07,5.6-12.17a9.85,9.85,0,0,1,1.43-1.9c.54.54,1.38,1,1.42,1.48.19,2.81,2,4.84,3.09,7.23,3,6.77,6.27,13.39,9.25,20.15,2.12,4.8,4.71,9.37,6.76,14.18,4.1,9.64,8.77,19,13.09,28.55,2.29,5,4.71,10,7,15.07C235.66,311.86,239.93,321.09,244.47,330.87Z" transform="translate(-33.4 -34.09)"/><path class="cls-1" d="M421.25,179c-5.27,4.11-10.49,8.27-15.84,12.27a39.63,39.63,0,0,1-5.41,2.89c-1.78-1.66-3.71-3.12-4.5-5.57-1.27-4.1,1.57-7.15,3.23-10.35a24.8,24.8,0,0,1,4.88-5.9c6.11-5.93,12.76-11.15,21.22-13.58A11.92,11.92,0,0,1,428,158c2.82,0,5.64,0,8.4,0L440,162c-.17.59,1.39,2.23-.72,3.05.49-1.65-1.59-2.37-1.09-3.69-6.36-1.69-11,1.71-15.9,4.24-2.45,1.27-4.34,3.33-6.35,5.23a76.08,76.08,0,0,0-10.91,13c-.77,1.14-1.32,2.43-2.24,4.16,4.91-1.48,8.33-4.4,11.87-6.93a99.59,99.59,0,0,0,14.15-11.86c1.4-1.46,3.13-3.26,5.63-3.14,1.86.9,2.64,2.71,3.68,4.7-5.06,4.65-9.53,10-12.25,17.78,5.48-2.73,9.14-6.39,13.25-9.51s7.08-7.63,12-10.49c.41-3.46,2.34-6.88,3.76-10.44,4.39-11,9.31-21.8,14.42-32.51,2.92-6.13,6.24-12.09,8.91-18.3,7.58-17.58,16.94-34.28,25.24-51.5,2.74-5.68,6.06-11.13,8.87-16.82A5.18,5.18,0,0,1,515.32,36c1-.32,1.48-1.24,2.24-1.83,5.22-.26,5.22-.26,8.42,1,2.34,3.34,1.26,6.71-.33,9.79C522.59,51,519.8,57,516.44,62.76c-2.85,4.91-5.38,10.09-8.24,15-3,5.1-5.08,10.66-8.6,15.45A24.25,24.25,0,0,0,497.8,97c-4.25,8.6-9.75,16.53-13.54,25.37-3.27,3.49-4.59,8.11-6.86,12.16-4.16,7.4-8.11,14.94-11.67,22.64-5.62,12.16-11.15,24.37-15.21,37.17a8.81,8.81,0,0,0-.21,3.39c.12,1.24-1.63,1.76-1.13,3.13.57,1.1,1.12,2.2,1.71,3.28a4.65,4.65,0,0,0,.79.81h6.13c6.09-3.56,11.07-8.66,15.66-14.41,3.57-4.48,6.53-9.32,9.73-14,2.89-4.24,5.55-8.66,8-13.16,3.49-6.36,6.73-12.86,10-19.33.87-1.71,2.88-2.6,2.61-4.38,1.5-.75,2.4-.85,3.41-.14.09,1.93-1.26,3.57-2.14,5-3.76,5.91-6.8,12.19-10.19,18.28-3.56,6.4-7.63,12.52-11.6,18.69s-8.09,12.28-13.41,17.44c-2.49,5.24-7.79,7.44-12,10.81a13.18,13.18,0,0,1-6,2.29c-4.48.73-7.8-1.12-9.71-6-.36-8.25,2-16.62,4.52-25,.89-3,1.66-6,2.49-9a.7.7,0,0,0,.89-.59c0-.08-.22-.31-.29-.29a.7.7,0,0,0-.59.89c-5.12,4-9.23,9-13.87,13.41-3.35,3.21-7.23,5.62-11.08,8.12a5.35,5.35,0,0,1-2.5.51l-3.67-4.5c-.68-2.23.71-5.13,2.18-7.92.46-.87,1.12-1.55.94-2.61a.7.7,0,0,0,.89-.59c0-.08-.22-.31-.29-.29A.7.7,0,0,0,421.25,179Z" transform="translate(-33.4 -34.09)"/><path class="cls-1" d="M303.34,241.55c-.25-1.25.57-1.48.74-1.82.66-2.18-.44-4.23,1-6.36,1.05-1.53-.72-4.21,1.14-6-.72-3.31,1.45-6.3,1-9.59-.08-.62-.19-1.33.51-1.75h.87q6.28,12.25,12.5,24.38,7.94,15.46,15.9,30.91,6.89,13.39,13.78,26.79c.28.55.48,1.13.72,1.73,1.17-.36,1.34-1.36,1.82-2.34,3.53-7.21,6.94-14.51,10.95-21.46,6.5-11.27,11.68-23.19,17.89-34.6,4.21-7.73,8.07-15.65,12-23.53.4-.79,1.08-1.19,1.73-2.25,2,9.11,3.34,18,4.44,26-1.39,2.93-2.19,5.14-3.4,7.1-5.46,8.84-9.43,18.45-14.48,27.5-4.07,7.29-7.29,15-11.45,22.23-4.59,7.93-8.22,16.31-12.77,24.23-2.17,3.77-4.2,7.61-6.34,11.49-5.49-10.13-10.38-20.31-15.82-30.18-4.11-7.46-7.69-15.18-11.8-22.64-4.92-8.93-9.36-18.12-14.07-27.16C308,249.85,305.51,245.54,303.34,241.55Z" transform="translate(-33.4 -34.09)"/><path class="cls-1" d="M50.11,330.93H33.4V219.35l1.33-1.21H50.11Z" transform="translate(-33.4 -34.09)"/><path class="cls-1" d="M521.12,178.91c-10.67,10.84-13.37,11.93-19.27,15.2-2.55-.48-4.67-1.6-5.28-4.81,0,0,.56-.36.56-.69,0-3.35,1.87-5.84,3.48-8.58a123.33,123.33,0,0,1,7.66-11.79c2.45-3.26,4.76-6.68,8.22-9.05,1.11.58,2.31.8,3.17,1.74s1.84,1.85,2.91,2.93c-8.47,6.14-12.7,15.07-17.68,23.62,2.7,1.55,3-2.08,4.94-1.52,1.89-2.52,5.08-3.5,7-6A20.76,20.76,0,0,1,521.7,176c3.52-2.47,5.44-6.31,7.46-9.89,2.47-4.38,5.42-8.4,8.16-12.58.78-1.2,1.19-2.53,2-3.7-.67-1.42-2.85-2.09-1.94-4.28,2.34-1.11,4.51-3.13,7.71-2.44,3.38-6.51,8.75-11.09,13.63-16.08,3.48-.38,5.94,1.69,8.71,3.48-5.66,2-8.75,6.6-12.06,11,.81,1,2,.43,3,.44,5,.07,10,.29,15,0,7.42-.48,14.7,1.2,22.07,1,1.52,0,2.44,1.44,4.1,1.12a4.49,4.49,0,0,1,4.35,1c-4.19-.54-7.73,1-11.13-1-.37-.22-1-.07-1.47-.07-6.66,0-13.37-.48-20,.18-3.87.39-7.88.1-11.54,1-3,.77-6.43-.1-8.76,1.79-9.48,13-18.2,26.08-25.12,40.64,2.22.67,3.56-.42,4.75-1.6,3-3,6.44-5.52,9.6-8.34,2.84-2.53,5.71-5.08,9.31-8.47-1,4.15-3.89,5.49-5.72,7.58-2,2.25-4.19,4.29-6.33,6.38s-4,4-6.11,5.77-4.62,3.32-7.09,5.07c-1.55.28-2.68-1.15-4.21-1.58-2.42-3.1-2.43-6.17-.39-9.6.65-1.09,2.17-2.14,1.38-4,.61.21.92,0,1-.47,0-.08-.22-.31-.29-.29A.87.87,0,0,0,521.12,178.91Z" transform="translate(-33.4 -34.09)"/><path class="cls-1" d="M568.25,216c2.53-1.36,4.21-3.67,6.1-5.68,3.15-3.35,6.79-6.11,10.24-9.11.28-.24.87-.12,2-.22-5.15,5.85-10.85,10.44-15.16,16.32A92.59,92.59,0,0,0,560.87,235h-2.19l-3.4-3.74c-.37-3.57,1-7,2.59-10.51,2.11-4.61,4-9.36,6.43-13.79,5.06-9.11,9.93-18.36,16.29-26.68a3.22,3.22,0,0,0,.66-2.23.85.85,0,0,0,1-1q1,0,1-1a.7.7,0,0,0,.89-.59c0-.08-.22-.31-.29-.29a.7.7,0,0,0-.59.89q-1,0-1,1a.85.85,0,0,0-1,1c-2.72,1.64-4.61,4.19-6.83,6.37A71,71,0,0,1,561.48,194c-3.06-.54-4.58-2.52-5.3-5.64a59.43,59.43,0,0,1,8.38-16.23c3.74-5.06,6.36-11.06,12.36-14.14,3.56,1.64,3.56,1.64,5.38,5.31a26,26,0,0,0-8,7.5c-2.61,3.51-4.87,7.28-7.29,10.93-1.06,1.6-2.07,3.2-1.76,5.26a.7.7,0,0,0-.89.59c0,.08.22.31.29.29a.7.7,0,0,0,.59-.89,5.7,5.7,0,0,0,4.23-1.81c3.58-3.35,7.68-6.12,11-9.83,2.65-3,5.6-5.7,8.45-8.51,3.14-3.1,6-6.5,10.35-8.85h2.52l3.48,3.5v2c-.63.86-1.54.31-2.68.68-3.09,3-5.5,7.06-8.65,10.4-4.56,4.82-8,10.35-11.48,15.82-2.94,4.56-5.77,9.2-8.3,14-1.72,3.28-3.78,6.42-5.58,9.69-.38.68-.17,1.26-.31,1.88a.85.85,0,0,0-1,1c-1.5.09-.85,1.24-1,2a.7.7,0,0,0-.89.59c0,.08.22.31.29.29a.7.7,0,0,0,.59-.89c1.5-.09.85-1.24,1-2A.85.85,0,0,0,568.25,216Z" transform="translate(-33.4 -34.09)"/><path class="cls-1" d="M402.93,255.45c.62,2.78.08,4.66,1.21,6.53.93,1.52-.14,3.59.89,5.61s.77,4.68,1,7c.28,3,1.9,5.91,1.23,9,1.83,4.57,1,9.69,3,14.22-.76,3.14,1.49,6,1,9.06-.29,1.73,1.53,2.77,1.12,4.6a5.49,5.49,0,0,0,.77,4.14c1,1.65-.79,4.23,1.14,6-.72,3.11,1.32,5.94.94,9.21H398.52a54.8,54.8,0,0,1-2.18-12.65c-.07-1.68-1.56-2.76-1.18-4.59a7.45,7.45,0,0,0-.71-4.14,23.41,23.41,0,0,1-1-7c-.3-5.46-2.35-10.65-2.16-16.12,0-1.12-1.15-1.47-1.08-2.58.17-2.7-.06-5.29,1.54-7.88,2.17-3.51,3.58-7.49,5.54-11.15C398.9,261.71,400.83,258.87,402.93,255.45Z" transform="translate(-33.4 -34.09)"/><path class="cls-1" d="M291.25,218c2.34-.62,2.18-3.38,4-4.6a21.29,21.29,0,0,0,4.25-4.19c2.64-3.18,6.51-4.92,9.17-8.06.19-.22.87,0,2.08,0-11,10-19.75,21-25.94,33.82-2.26.64-3.53-1-4.38-2.43s-1.74-3.29-.87-5.36c1.84-4.39,3.48-8.87,5.69-13.11s4.56-8.77,6.89-13.12,5.59-7.87,7.18-12.48c2.09-1.4,2.79-3.95,4.59-5.58.63-.57.21-1.25.34-1.86a.7.7,0,0,0,.89-.59c0-.08-.22-.31-.29-.29a.7.7,0,0,0-.59.89c-3.78,2.94-7.6,5.83-11.31,8.85-2.09,1.7-4.71,2.37-6.9,3.86-3.88-.38-4-4.18-5.79-6.41,1.34-3.29,2.37-6.62,4.63-9.6a57.28,57.28,0,0,1,14.29-13.68c3.24-2.11,6.37-4.52,10.4-5,1.5-2.1,4-.16,5.85-1.59s3.59.3,5.39.57a10.55,10.55,0,0,0,1.74,0c1.89,1.18,2.6,3,3.82,4.84a10.08,10.08,0,0,0-1.36,4.69c-1.18-1.87-.58-3.37-.84-5.17l-2.68-1.69a3.46,3.46,0,0,0-3.27-.21,45.35,45.35,0,0,0-20.68,13.88,73.21,73.21,0,0,0-9.91,14.81,23.14,23.14,0,0,0,3.66-1.72c5.59-4.21,11.49-8,16.83-12.56,2.59-2.22,5.15-4.47,7.57-6.86a12.73,12.73,0,0,1,4.77-3c2.12,1.14,2.92,3.22,4.08,5.81-.77.59-1.73,1.24-2.59,2-6.33,5.59-10.93,12.54-15.58,19.49-5.11,7.65-9.72,15.6-14.48,23.46a3.94,3.94,0,0,0-.65,2.24.7.7,0,0,0-.89.59c0,.08.22.31.29.29A.7.7,0,0,0,291.25,218Z" transform="translate(-33.4 -34.09)"/><path class="cls-1" d="M288.62,330.85l12.61-75.57c2.65,5,5.14,9,6.94,13.29,1.64,3.92,4.78,6.93,5.86,11.1.86,1.12-1,1.36-.78,2.47.78,3.47-1.32,6.66-1,10.08.16,1.65-1.66,2.86-1,4.58.74,1.93-1,3.32-1,5.09-.06,1.56.66,3.28-.88,4.65-.34.3-.06,1.27-.08,1.93-.06,1.91,0,3.75-.9,5.63-.8,1.63.7,3.94-1.1,5.54.77,3.79-2,7.22-.73,11.2Z" transform="translate(-33.4 -34.09)"/><path class="cls-1" d="M362.25,177c-.84-.12-1.14.62-1.54,1.08-3.62,4.06-8.22,7-12.08,10.83-2.14,2.11-4.61,4.34-8.13,4.81a11.36,11.36,0,0,1-4.25-3.34c-.42-5.07,2.39-9.19,4.63-13.46,2.11-4,5-7.57,7.51-11.36,2-3,5-5.21,7.41-7.62,3.91.18,5.56,2.41,6.74,5.84-2.92-.06-4,1.78-5.6,3.73-2.71,3.37-5.52,6.7-7.9,10.3a54.83,54.83,0,0,0-5.18,10.5,61.39,61.39,0,0,0,8.32-5.66c9.28-7.51,17-16.63,25.57-24.54,3.86-.85,5.5,1.81,7.24,4.21-8.6,6.61-14.27,15.46-18.91,25.66,3.41-.24,5.34-2.51,7.56-4a52.73,52.73,0,0,0,9.86-8.79c1.63-1.82,3.86-2.79,5.75-4.23a2.6,2.6,0,0,1-.67,2.22c-3.56,3.45-6.76,7.33-10.61,10.41-4.63,3.7-8.66,8.36-14.84,10.26-1.15-.85-2.85-1.1-4-3-1.9-3.12.19-5.35.7-7.94.42-2.14,2.59-3.56,2.43-5.93a2.47,2.47,0,0,0,2-3,.7.7,0,0,0,.89-.59c0-.08-.22-.31-.29-.29a.7.7,0,0,0-.59.89A2.47,2.47,0,0,0,362.25,177Z" transform="translate(-33.4 -34.09)"/><path class="cls-1" d="M345.25,436a18,18,0,0,0-12.78,5.32c-2.16,2-4.16,4.26-6.21,6.42-.08.09,0,.32,0,.82a3.71,3.71,0,0,0,3.85.06,40.7,40.7,0,0,0,10.45-7.37,2.56,2.56,0,0,0,.7-2.22c0-1.26,1.35-1.24,1.47-2.06,2.66.25,2.25,2.87,4,3.91,3.58,1.06,6.82-1.24,10.17-2.22a9.21,9.21,0,0,1,7.65.54c2.46-2.46,5.09-5,7.56-7.59a32.12,32.12,0,0,1,7.6-5.44c2.23-.61,3,1.29,4.62,1.12-9.73,6.16-16.49,15.22-24.61,22.81-.68.64-.91,1.76-1.5,3,3.21-.32,5.11-3.07,8-3,.16.62-.33.94-.7,1.17-2.59,1.64-5.19,3.25-7.83,4.8-.37.21-1,0-1.64,0L353.14,453a18.94,18.94,0,0,0,3.11-4.94.7.7,0,0,0,.89-.59c0-.08-.22-.31-.29-.29a.7.7,0,0,0-.59.89c-1.06-.18-1.75.47-2.61.94-3.25,1.76-6.62,3.29-10,4.94l-2.34-2.42v-3l6-5.84c-.57-1.08-1.49-.49-2.47-.72-3,3.41-6.43,6.44-10.94,8h-8.22l-2.31-3.1v-2.37c2.15-1.64,2.42-5.31,6.12-5.86-1.38-1.06-2.59-.28-3.39-.63-6,5.29-12.06,9.47-20.44,6.89-2-4.66-2-4.69,1.51-8.23,3.2-3.26,6.8-5.77,11.63-5.61,1.53.05,2.77-2.24,4.38-.6,1.21,1.24,2.92-.05,4.41,1.16-2,.78-3.79.18-5.06.39-6.27,2.63-11.82,5.59-15.56,11.48a4.33,4.33,0,0,0,4.25.09c3-1.61,6-3.15,8.9-5a4,4,0,0,0,2.27-3.54c0-1.8,1.64-2.15,3.48-2a7.38,7.38,0,0,0,2.92,3.88,9.46,9.46,0,0,0,6.15-.92c3.27-1.54,6.65-.92,10-.79C345,435.22,345.13,435.75,345.25,436Zm1.15,14c6.14-2.07,12.4-4.15,17-9.83-1.61-.16-2.79-.44-4.06.2-4.79,2.42-9.57,4.82-13.06,9.6a.7.7,0,0,0-.89.59c0,.08.22.31.29.29A.92.92,0,0,0,346.4,450.06Z" transform="translate(-33.4 -34.09)"/><path class="cls-1" d="M59.42,315.11H96.08v15.61c.07-.06,0,.07-.18.15a.88.88,0,0,1-.43.15h-36Z" transform="translate(-33.4 -34.09)"/><path class="cls-1" d="M424.65,453.87c-3.81,1.46-6.6,3.84-9.48,5.91-4.56,3.28-9.8,4.59-15,6.16a4.88,4.88,0,0,1-4.66-.77c-.61-.49-1.65-1.6-2.93-1.25-.73-1.73-1.93-3.35-1.25-5.44.58-.67,1.5-1.32,1.81-2.17.59-1.67,1.84-2.39,3.19-3.33a62.38,62.38,0,0,1,12.54-7.15c.43-.17.72-.68,1.38-1.35-2.33-.6-3.42-2.56-5-3.86.5-3.52,2-5.4,4.46-7.64,6.79-6.13,14.83-8.21,23.71-7.95.67,0,1.33,0,2,0a1.2,1.2,0,0,1,.44.13c.88.74,1.75,1.51,2.38,2.05v3.34c-1.61.8-1.63,3.32-3.31,4.18-3.56,1.82-6.54,5.31-11.42,4.15-.65-.42,0-1.87-1.19-2.27.59-1.24,1.72-.7,2.62-1,4.43-1.31,8.63-3.21,11.31-7.43.19-.94-.77-1.27-1.45-2.3-9.68.33-17.67,4.53-24.5,11.39v3.15c.55,1,5.66,2.54,10.32,2.79-1.17.84-1.52,1.6-2.81,1.83a30.79,30.79,0,0,0-15.42,7.34,36.35,36.35,0,0,1-3.09,2.17c-1,.7-1.46,2-2.17,3-1.19,1.73-1.2,1.73.4,4.24,4.82.75,9.17-.58,13.6-2.74a111.36,111.36,0,0,0,16-9.54,29.12,29.12,0,0,0,2.23-1.95c-1.69-1.41-2.8.12-4.1.32s-3.11.58-3.84-1.58c1-1.94,3.36-1.81,5.1-2.21,2.6-.61,5.47.17,8-1.25,1.93-1.51,3.42-3.82,5.7-3.9,2,0,2.63.88,3,2.11-.41,1.46-2.8.75-2.89,3,3.42-.7,6.53.71,10.68,1.46-3,.72-5.3.36-7.51.43s-4.33,0-6.81,0c-9.09,8.93-17.54,18.64-24.19,29.88,2.63-8,7.24-14.9,12.08-22,.29.19.62-.15.6-.84a.7.7,0,0,0,.89-.59c0-.08-.22-.31-.29-.29a.7.7,0,0,0-.59.89C424.56,453,424.23,453.34,424.65,453.87Z" transform="translate(-33.4 -34.09)"/><path class="cls-1" d="M242.49,421.6a523.26,523.26,0,0,1-123-60.46c1.46,0,2-.16,2.35,0,14.77,7.4,29.38,15.15,44.33,22.16,16.21,7.61,31.92,16.23,48.22,23.61,9.28,4.2,18.16,9.2,27.5,13.27C242.09,420.29,242.14,420.75,242.49,421.6Z" transform="translate(-33.4 -34.09)"/><path class="cls-1" d="M740.25,362c-1.83,2.94-5.07,4.24-7.78,5.87-7.42,4.48-14.88,8.95-22.41,13.26-10.34,5.92-20.79,11.64-31.53,16.73-7.07,3.35-14.08,7-21.43,9.68-8.37,3.08-16.46,6.87-25,9.62a67.76,67.76,0,0,0-9,3.53c-1,.49-1.93.13-2.87.31,3.1-2.83,7.16-4,10.74-5.93,6.34-3.48,12.8-6.82,19.44-9.67,16.44-7,31.93-16,48.2-23.41,13.47-6.11,26.56-13,39.75-19.69A6.14,6.14,0,0,1,740.25,362Z" transform="translate(-33.4 -34.09)"/><path class="cls-1" d="M468.59,456.93c-2,2.8-4.66,4.05-5.69,6.88-.87,2.4-1,2.78,1,5.41a72.81,72.81,0,0,0,22.84-6c8.84-4.11,16.92-9.13,23.86-16A31.52,31.52,0,0,0,518,434.78a4.62,4.62,0,0,0-.4-4.1c-1.77-3.13-4-5.11-7.63-5.74-2.2-.38-4.33-1.16-6.6-.9a60.54,60.54,0,0,0-12.28,2.91c-4.72,1.58-8.36,4.81-12.47,7.3-1.85,1.12-1.7,3.69-3.42,5.4l2.27,1.55c-.5.78-1.07,1.05-1.43.8a32.71,32.71,0,0,1-2.66-2.27c-.59-4.52,1.45-7.28,5.2-9.8A39.23,39.23,0,0,1,501.2,423c1.67,0,3.34.12,5,0,4-.35,7.28,1.7,10.66,3.23,1.77.8,2.56,2.82,3.33,4.56a3.65,3.65,0,0,0,1,1.57c.94,7-2.34,12.19-6.78,17.15a68.83,68.83,0,0,1-19.07,14.4c-5.28,2.84-10.86,5.28-16.95,6.1-2.07,2.12-4.95.31-7.35,1.59-2.16,1.16-4.85.21-6.76.39-2.23-1-3.88-1.93-5-3.6C460.23,463.25,464.25,458.17,468.59,456.93Z" transform="translate(-33.4 -34.09)"/><path class="cls-1" d="M560.25,438c.34-3.17,2.86-4.51,5.15-5.94.61-.38,1-1.35,2.57-.88l1.3,2.36c-1.09,4.12-4.82,8.16-5.69,13.65,4-1.34,4.39-6.05,7.55-7.51.45-1.31-.62-1.65-.89-2.36,0-.33,0-.81.16-.93,3.33-2.29,3.36-6.27,4.81-9.5,2.21-4.92,3.48-10.27,7-14.56.17-.21.09-.62.13-.95,1.49-.37,2.58-2.07,4.69-1.09l1.13,1.13c-3.75,3.4-7,10.9-9.79,19.21.12.12.23.32.36.33s.24-.2.35-.31l5.63-5.63a3,3,0,0,1,3.43,1.4c.74,3.73-1.81,5.83-4,8.22s-5.13,3.44-8,4.74c3,3.49,6.77,5.48,10.91,7.61a19.32,19.32,0,0,1,4.54.07c1.83.42,2.89-1.56,4.59-1.07-.34,1.94-2.41,1.87-3.61,3-6.69.69-11.86-1.24-17.3-6-3.19.44-1.45,3.5-2.36,4.93-1.3.33-1.73-.5-2.39-1.08-.9-1,.19-2.53-.73-3.78-.33.27-.78.46-.95.8a16,16,0,0,1-7.3,7.06l-2.42-3.32c-.28-3.56,2.68-7.1,4.22-11.25C561.66,435.9,561.6,438.21,560.25,438Zm23-9c-2.12.76-2.88,3.24-5,4a.7.7,0,0,0-.59-.89c-.08,0-.31.22-.29.29a.7.7,0,0,0,.89.6c.34,1.34-.49,2.12-1.38,2.88-.71.61-.95,1.27-.08,2.2,1.47-1.51,3-2.94,4.36-4.54,1.08-1.29,2.19-2.66,2.1-4.54a.7.7,0,0,0,.89-.59c0-.08-.22-.31-.29-.29A.7.7,0,0,0,583.25,429Z" transform="translate(-33.4 -34.09)"/><path class="cls-1" d="M358.9,74c-3,2.86-6.58,3.75-9.6,5.51,4,6.33-4.65,23.57-15.05,28.56-1,0-1.23-1-1.94-1.43-.6-4.33,1.83-7.83,3.45-11.48a100.31,100.31,0,0,1,7-13.12c1-1.58,2.15-3.25,1.35-5.3,1.24-.68,2.54-1,3.16-2.23,3.39-6.62,8.42-12.13,12.46-18.32a9.1,9.1,0,0,1,3.38-2.6c2-1.1,3-.34,4.21,1-7.17,6.21-12,14.23-17.25,22.5C353.45,76.76,355.36,74.07,358.9,74Zm-23.05,30.64a47.85,47.85,0,0,0,11.4-13.13c-.11-3.56,3.37-6.6,1.34-10.9-3.42,1.85-3.87,5.7-5.54,8.41-2.87,4.65-5.8,9.46-6.81,15a.7.7,0,0,0-.89.59c0,.08.22.31.29.29C336.11,104.82,336.33,104.51,335.85,104.62Z" transform="translate(-33.4 -34.09)"/><path class="cls-1" d="M316.12,429.13c-5-.16-8.72-2.87-13.23-2-7,5.1-14.76,9.68-20.59,16.43-.2,1,.35,1.36.85,1.83-.58,1.28-1.66.32-2.46.56a2.7,2.7,0,0,1-.42-.82,6.8,6.8,0,0,1,2.37-6c4.08-3.77,7.46-8.31,12.27-11.29.54-.33,1-.77,2.06-1.57-5.3-.73-9.38.55-13.65,2.67,0-1.54-.6-3.12,1.14-4.76,2.5.39,4.8-1.71,7.62-1.18.32.06.67,0,1,0,2.72.49,5.37,2.07,8.17,0a73.65,73.65,0,0,1,6.72-4.22c2-1.15,4.09-2.16,6.16-3.18,1.68-.82,3.59-.92,5.33-2.36l2.75,4.2V419c-3.34-2.56-5.51.45-7.86,1.62s-5.89,1.41-7.37,4.79C309.84,426.71,313,426.91,316.12,429.13Z" transform="translate(-33.4 -34.09)"/><path class="cls-1" d="M460.33,63.37c3-1.12,5.93-2.91,9.55-2.23,1.61-3.36,4.46-5.59,6.78-8,2.06-.78,3,1.33,4.87,1-1.67,2.32-4.77,2.43-5.29,5.2.42,1.15,1.39.78,2.1.71,6.06-.67,11.85,1.8,17.9,1.38-2.38.9-4.81.58-7.2.64s-4.66,0-7,0h-7.32c-6.21,5.85-9.67,13.3-14,20.73,5.37-.78,6.77-6.5,11.35-7.47-3.59,3.77-6.76,7.92-11.72,10.71h-2.58c-1-.38-.11-2-1.34-2.3,2.2-7.19,7.08-12.89,10.95-19.68a7.77,7.77,0,0,0-5.43,2.83C460.24,66.29,460.07,65,460.33,63.37Z" transform="translate(-33.4 -34.09)"/><path class="cls-1" d="M348.21,422.15c-2.89-.72-5.29-2.51-8-3.63-5.12-2.13-10.17-4.4-15.67-5.6-3-.66-5.9-2-9.06-2.19-.41,0-.79-.66-1.19-.68-6-.15-12-1.56-18.06-1.12-1.66.12-2.77,1.7-4.58,1.13-1.61-.51-3.07.62-4.58.86-2.44.39-4,1.78-5.72,3.49v3.5c.07.43,1.65.6,1.64,2.22-3.16-.9-4.39-3.46-5.78-5.94,1.42-4.66,5.2-6,9.47-7.26,6-1.7,12.08-.92,18.07-.75,3.68.1,7.41,1.28,11.14,1.91s7.13,2.12,10.76,2.84c2,.41,3.76,1.52,5.57,2.25,5.27,2.11,10.57,4.36,15.29,7.64C347.9,421.09,348.42,421.39,348.21,422.15Z" transform="translate(-33.4 -34.09)"/><path class="cls-1" d="M525.25,448c-2,2.23-2.58,5.4-4.91,7.41-.36,1.17.34,2.56-.59,3.69-1.81-.25-2.42-1.77-3.56-2.69a83,83,0,0,1,8.56-17.37c1.72-.59,2.87.9,4.34,1.3-.6,1.76-3.34,2.22-2.85,4.66a.7.7,0,0,0-.89.59c0,.08.22.31.29.29a.7.7,0,0,0,.59-.89c2.08-1.06,3.41-3,5-4.55a14.56,14.56,0,0,1,5-3.45c1.06.17,1.56,1,2.1,2a27.84,27.84,0,0,1-3.12,4.47c-1.15,1.14-.9,2.32-1,3.58a.7.7,0,0,0-.89.59c0,.08.22.31.29.29a.7.7,0,0,0,.59-.89h2c-.48,2.1-2.67,2-3.94,3.07-1.61-.44-2-2-3.1-2.56.12-1.53,1.51-2.22,1-3.51a.7.7,0,0,0,.89-.59c0-.08-.22-.31-.29-.29a.7.7,0,0,0-.59.89c-2.12.77-2.88,3.24-5,4a.7.7,0,0,0-.59-.89c-.08,0-.31.22-.29.29A.7.7,0,0,0,525.25,448Z" transform="translate(-33.4 -34.09)"/><path class="cls-1" d="M426.77,78.85c-2.86,3.51-6.48,5.1-10.33,7.1h-4.77l-1.28-1.28V80.88a30.05,30.05,0,0,1,8.12-9.44c2-1.62,4.63-2.36,6.65-3.34,1.77-.35,2.54,1.16,4,1.17,0,.46.28,1,.11,1.38-.76,1.79-1.12,3.57-3.45,4.61-2,.9-3.54,2.94-5.85,3.93a12.06,12.06,0,0,1-4.2.85l-1.59,3.2c.32.35.5.73.73.77a7.65,7.65,0,0,0,5.73-1.79C422.36,80.94,423.93,79.31,426.77,78.85ZM426.25,71c-.33,0-.76-.14-1,0-2.26,1.69-4.48,3.42-6.7,5.15-.64.5-.2,1.22-.33,1.83a.7.7,0,0,0-.89.59c0,.08.22.31.29.29a.7.7,0,0,0,.6-.89c.6-.12,1.29.29,1.82-.31,2-2.29,4.6-4,6.19-6.69a.7.7,0,0,0,.89-.59c0-.08-.22-.31-.29-.29A.7.7,0,0,0,426.25,71Z" transform="translate(-33.4 -34.09)"/><path class="cls-1" d="M486.07,456.23l1,1.25L485.85,459c-1.41.24-1.83-.87-2.57-1.44,1.1-6.15,5-11,8.17-16s6.3-10.17,11.64-13.56c1.68-.61,2.55,1.48,4.39,1.16-1.24,2-3.32,2-4.44,3.55C497.31,440.44,490.76,447.57,486.07,456.23Z" transform="translate(-33.4 -34.09)"/><path class="cls-1" d="M391.25,77c1.67-3.35,5.33-4.49,7.85-6.91a3.42,3.42,0,0,1,2-1.08c1,0,1.93,0,3,0,.65,2.53-.62,4.13-2,5.69a28.53,28.53,0,0,0-5.11,8.21c3.42-.82,5-3.25,7-5.14.93-.87,1.61-2.2,3.26-1.76-2.61,4.22-7,6.59-10.56,9.93-1.62.09-3.51.57-4.48-1.75.29-4,3.73-6.59,5-10.19q1,0,1-1a.7.7,0,0,0,.89-.59c0-.08-.22-.31-.29-.29a.7.7,0,0,0-.59.89q-1,0-1,1c-1.3-.32-2.05.48-2.84,1.32S392.81,77.43,391.25,77Z" transform="translate(-33.4 -34.09)"/><path class="cls-1" d="M439.25,81c.35-1.44,1.47-1.93,3.15-2.35l-3.2-3.2c.86-4.45,4.5-5.64,7.86-7.45h4.68c1,.92.26,2.15.6,3.49l-2.68,2.41a1.07,1.07,0,0,1-.39-1.32c.15-.6,1.11-.75,1-1.58a.7.7,0,0,0,.89-.59c0-.08-.22-.31-.29-.29a.7.7,0,0,0-.59.89c-3.41.27-5.37,3-8,4.38a2.38,2.38,0,0,0,2,2.62c-.48,1.68,1.76,2.74,1,4.53-1.12,1.5-3,2.39-4.5,3.18-1.12.58-2.7,1.56-4.28,1.29-1.2,0-1.59-1-2.19-1.7,0-1.35.86-2,2-2.31a.7.7,0,0,0,.59.89c.08,0,.31-.22.29-.29a.7.7,0,0,0-.89-.59,2.46,2.46,0,0,1,3-2c0,.33,0,.67,0,1a.7.7,0,0,0-.89.59c0,.08.22.31.29.29a.7.7,0,0,0,.59-.89c.28-.11.76-.18.8-.34C440.18,81.09,439.74,81,439.25,81Zm2-.5c.32.47.66.47,1,0C441.92,80.06,441.59,80.06,441.26,80.53Z" transform="translate(-33.4 -34.09)"/><path class="cls-1" d="M555.25,444c-.29,2.71-2.44,4.3-3.74,6.4-.69,1.09.37,2.56-.8,3.65-1.75,0-2.26-1.72-3.45-2.51,1.68-1.23.75-3,1-4.54a.78.78,0,0,0,1-.76c.07-.67,0-1.31-1-1.24,2-3.44,4-6.89,6-10.3a14.87,14.87,0,0,1,1.62-1.89l3.62,1.78c-1.86,2.85-4.35,5.3-5.25,8.65C554.4,443.76,554.63,444.14,555.25,444Z" transform="translate(-33.4 -34.09)"/><path class="cls-1" d="M538.25,445a46.42,46.42,0,0,0,5.14-7.81c1.94-.41,3.66-.51,5,1.53-4.74,2.47-4.89,7.73-7.26,11.63.95.93,1.57.72,2.28.07s.88-1.46,1.89-1.43c-.13.61.27,1.28-.33,1.85-1.32,1.25-2.58,2.56-4,4h-3.3l-1.32-1.32c-.36-2.75,2-4.84,2-7.53.28-.11.76-.17.79-.34C539.18,445.09,538.74,445,538.25,445Z" transform="translate(-33.4 -34.09)"/><path class="cls-1" d="M388.25,80c-.77,1.92-2.75,2.77-3.82,4.42-.52.77.4,2-.7,2.54-1.1.28-1.52-.56-2.38-1.37a7.32,7.32,0,0,1,.81-4.21c2.83-4.77,5.61-9.52,9.62-13.41,1.9-.1,2.16,1.93,3.62,2.39-1.9,1.9-3.62,3.72-5.45,5.4a2.52,2.52,0,0,0-.68,2.23.85.85,0,0,0-1,1c-.28.11-.76.17-.79.34C387.32,80,387.77,80.07,388.25,80Z" transform="translate(-33.4 -34.09)"/><path class="cls-1" d="M371.63,81.15c-4.76,4.76-4.76,4.76-9.17,4.8V81.43c3.34-3.81,4.78-9.49,9.75-12.46,1.4.34,1.91,1.75,3.29,2.69-3.19.41-3.92,3.11-5.37,5.06s-2.59,4-3.88,6c1.66.74,2.18-.35,2.77-1S370.41,80.94,371.63,81.15Z" transform="translate(-33.4 -34.09)"/><path class="cls-1" d="M532,150.53c-4.87,1-7.08,4.6-9.78,7l-3-2.69a15.05,15.05,0,0,1,5.48-8.69h3.11Z" transform="translate(-33.4 -34.09)"/><path class="cls-1" d="M545.53,435.57c-.67-3,.54-4.75,2-6.36,1.66-.59,2.81,0,3.15.56Z" transform="translate(-33.4 -34.09)"/><path class="cls-1" d="M374,68.3c-1.15-1.14-.48-2-.83-2.7l3.6-3.59,2.43,2.63Z" transform="translate(-33.4 -34.09)"/><path class="cls-1" d="M560.25,438c0,2.73-2.21,3.7-4,5C556.26,440.3,558.46,439.33,560.25,438Z" transform="translate(-33.4 -34.09)"/><path class="cls-1" d="M446.25,77c1.17-1.91,3-2.09,5-2C450.08,76.94,448.22,77.12,446.25,77Z" transform="translate(-33.4 -34.09)"/><path class="cls-1" d="M548.25,447l-3,2c-.15-2.2,1.39-3.12,3-4Z" transform="translate(-33.4 -34.09)"/><path class="cls-1" d="M427.51,78l2.75-2.37A2.37,2.37,0,0,1,427.51,78Z" transform="translate(-33.4 -34.09)"/><path class="cls-1" d="M468.25,457a2.46,2.46,0,0,1,3-2A2.46,2.46,0,0,1,468.25,457Z" transform="translate(-33.4 -34.09)"/><path class="cls-1" d="M366.25,450a2.46,2.46,0,0,1,3-2A2.46,2.46,0,0,1,366.25,450Z" transform="translate(-33.4 -34.09)"/><path class="cls-1" d="M451.25,75c.47-1.93,2-.62,3-1C453.78,76,452.24,74.65,451.25,75Z" transform="translate(-33.4 -34.09)"/><path class="cls-1" d="M620.8,420.87c-1.14,1.34-1.78,1.43-2.47.76C618.72,420.57,619.61,421.21,620.8,420.87Z" transform="translate(-33.4 -34.09)"/><path class="cls-1" d="M350.18,422.63c-.69.62-1.68.66-1.84-.15-.21-1,.89-.15,1.33-.42C349.71,422,350,422.42,350.18,422.63Z" transform="translate(-33.4 -34.09)"/><path class="cls-1" d="M360.25,73c-.09,1.5-1.24.85-2,1C358.34,72.53,359.49,73.18,360.25,73Z" transform="translate(-33.4 -34.09)"/><path class="cls-1" d="M317.18,429.63c-.69.62-1.68.66-1.84-.15-.21-1,.89-.15,1.33-.42C316.71,429,317,429.42,317.18,429.63Z" transform="translate(-33.4 -34.09)"/><path class="cls-1" d="M438.65,167c-.62-.69-.66-1.68.15-1.84,1-.21.15.89.42,1.33C439.25,166.48,438.86,166.77,438.65,167Z" transform="translate(-33.4 -34.09)"/><path class="cls-1" d="M739.71,362.19c1.14-1.34,1.78-1.43,2.47-.76C741.79,362.49,740.9,361.85,739.71,362.19Z" transform="translate(-33.4 -34.09)"/><path class="cls-1" d="M444.25,78c.09-1.5,1.24-.85,2-1C446.17,78.53,445,77.88,444.25,78Z" transform="translate(-33.4 -34.09)"/><path class="cls-1" d="M453.71,74.19c1.14-1.34,1.78-1.43,2.47-.76C455.79,74.49,454.9,73.85,453.71,74.19Z" transform="translate(-33.4 -34.09)"/><path class="cls-1" d="M244.18,421.63c-.69.62-1.68.66-1.84-.15-.21-1,.89-.15,1.33-.42C243.71,421,244,421.42,244.18,421.63Z" transform="translate(-33.4 -34.09)"/><path class="cls-1" d="M474.25,453c-.09,1.5-1.24.85-2,1C472.34,452.53,473.49,453.18,474.25,453Z" transform="translate(-33.4 -34.09)"/><path class="cls-1" d="M360.26,73a.7.7,0,0,1,.59-.89c.08,0,.31.22.29.29A.7.7,0,0,1,360.26,73Z" transform="translate(-33.4 -34.09)"/><path class="cls-1" d="M377.26,75a.7.7,0,0,1,.59-.89c.08,0,.31.22.29.29A.7.7,0,0,1,377.26,75Z" transform="translate(-33.4 -34.09)"/><path class="cls-1" d="M407.26,76a.7.7,0,0,1,.59-.89c.08,0,.31.22.29.29A.7.7,0,0,1,407.26,76Z" transform="translate(-33.4 -34.09)"/><path class="cls-1" d="M376.25,76a.85.85,0,0,1-1,1A.85.85,0,0,1,376.25,76Z" transform="translate(-33.4 -34.09)"/><path class="cls-1" d="M374.25,78a.85.85,0,0,1,1-1A.85.85,0,0,1,374.25,78Z" transform="translate(-33.4 -34.09)"/><path class="cls-1" d="M390.25,78a.85.85,0,0,1,1-1A.85.85,0,0,1,390.25,78Z" transform="translate(-33.4 -34.09)"/><path class="cls-1" d="M374.25,78a.85.85,0,0,1-1,1A.85.85,0,0,1,374.25,78Z" transform="translate(-33.4 -34.09)"/><path class="cls-1" d="M389.26,171a.7.7,0,0,1,.59-.89c.08,0,.31.22.29.29A.7.7,0,0,1,389.26,171Z" transform="translate(-33.4 -34.09)"/><path class="cls-1" d="M389.25,78h1a.85.85,0,0,1-1,1Z" transform="translate(-33.4 -34.09)"/><path class="cls-1" d="M427.25,78a.85.85,0,0,1-1,1A.85.85,0,0,1,427.25,78Z" transform="translate(-33.4 -34.09)"/><path class="cls-1" d="M373.25,79a.85.85,0,0,1-1,1A.85.85,0,0,1,373.25,79Z" transform="translate(-33.4 -34.09)"/><path class="cls-1" d="M389.25,79a.85.85,0,0,1-1,1V79Z" transform="translate(-33.4 -34.09)"/><path class="cls-1" d="M372.25,80a.85.85,0,0,1-1,1A.85.85,0,0,1,372.25,80Z" transform="translate(-33.4 -34.09)"/><path class="cls-1" d="M556.25,443a.85.85,0,0,1-1,1A.85.85,0,0,1,556.25,443Z" transform="translate(-33.4 -34.09)"/><path class="cls-1" d="M538.25,446h-1a.85.85,0,0,1,1-1Z" transform="translate(-33.4 -34.09)"/><path class="cls-1" d="M596.26,446a.7.7,0,0,1,.59-.89c.08,0,.31.22.29.29A.7.7,0,0,1,596.26,446Z" transform="translate(-33.4 -34.09)"/><path class="cls-1" d="M372.24,446.53c-.32.47-.66.47-1,0C371.59,446.06,371.92,446.06,372.24,446.53Z" transform="translate(-33.4 -34.09)"/><path class="cls-1" d="M537.25,446a.85.85,0,0,1-1,1A.85.85,0,0,1,537.25,446Z" transform="translate(-33.4 -34.09)"/><path class="cls-1" d="M345.26,436a.7.7,0,0,1,.89.59c0,.08-.22.31-.29.29A.7.7,0,0,1,345.26,436Z" transform="translate(-33.4 -34.09)"/><path class="cls-1" d="M369.26,448a.7.7,0,0,1,.59-.89c.08,0,.31.22.29.29A.7.7,0,0,1,369.26,448Z" transform="translate(-33.4 -34.09)"/><path class="cls-1" d="M474.26,453a.7.7,0,0,1,.59-.89c.08,0,.31.22.29.29A.7.7,0,0,1,474.26,453Z" transform="translate(-33.4 -34.09)"/><path class="cls-1" d="M377.25,75a.85.85,0,0,1-1,1A.85.85,0,0,1,377.25,75Z" transform="translate(-33.4 -34.09)"/><path class="cls-1" d="M471.25,455a.85.85,0,0,1,1-1A.85.85,0,0,1,471.25,455Z" transform="translate(-33.4 -34.09)"/></svg>