<svg id="Layer_2" data-name="Layer 2" xmlns="http://www.w3.org/2000/svg" viewBox="0 0 845 89.22"><defs><style>.cls-1{fill:#1c1c1c;}</style></defs><title>underlineillu</title><path class="cls-1" d="M586.21,137.76a43.25,43.25,0,0,0,12.64,7,34.88,34.88,0,0,0,14,2.09,20.26,20.26,0,0,0,3.49-.38,18.17,18.17,0,0,0,3.43-.7l3.36-1,3.22-1.39,1.61-.67,1.52-.89,3-1.76c2-1.3,3.79-2.81,5.68-4.19l0,0a2.72,2.72,0,0,1,1.54-.52l34.34-.86,34.34-.31,34.34-.29c11.45,0,22.89.15,34.34.21l34.34.28c11.45,0,22.89.5,34.34.73q34.34.73,68.67,2.55v.45l-137.35.18-137.35-.1.19-.07c-2,1.4-4,2.92-6.08,4.23l-3.26,1.77L629,145l-1.73.67-3.46,1.34-3.61.88a19.75,19.75,0,0,1-3.66.58,21.83,21.83,0,0,1-3.7.23,36.46,36.46,0,0,1-14.48-2.81,42,42,0,0,1-12.49-7.86Z" transform="translate(-69.5 -73.39)"/><path class="cls-1" d="M491.84,136.27a84.06,84.06,0,0,1,13.44-13.47,90.66,90.66,0,0,1,16.48-10,66.35,66.35,0,0,1,18.8-5.64,57.78,57.78,0,0,1,20,.72c13.21,3.05,24.23,10.37,34.32,17.62,4.93,3.66,10,6.71,15.68,8a26.7,26.7,0,0,0,8.81.72,54.68,54.68,0,0,0,9.08-1.68l.17.41c-5.75,2.41-12.13,3.88-18.42,2.88s-12-4-17.21-7.36c-10.49-6.66-21.23-13.52-33.43-16.18s-25-.86-36.48,3.78a94.78,94.78,0,0,0-30.91,20.58Z" transform="translate(-69.5 -73.39)"/><path class="cls-1" d="M492.07,108.6a65.56,65.56,0,0,1,11,3.6,68.51,68.51,0,0,1,10.46,5.34,42.67,42.67,0,0,1,9.13,8,27.84,27.84,0,0,1,3.43,5.37,13,13,0,0,1,1.2,3.06l.84,2.75c.86,2.61,3,4.29,5.92,5.45a31.68,31.68,0,0,0,10,1.6,91.76,91.76,0,0,0,21.65-2.27l-3.12,3.93a12.26,12.26,0,0,0-.93-3.95,9.7,9.7,0,0,0-2.28-3.29c-2-1.76-4.85-2.57-8.09-2.79-6.67-.2-13.79,2.17-20.79,4.63a160.15,160.15,0,0,0-20.67,9.14,77.52,77.52,0,0,0-9.69,5.73,39.79,39.79,0,0,0-4.37,3.52,16,16,0,0,0-3.57,4.24l-.43-.12c1.59-3.67,4.55-6.28,7.43-8.79a79,79,0,0,1,9.42-6.61,158.44,158.44,0,0,1,20.53-10.32c7-2.93,14.44-5.58,22.25-5.64,3.85.13,7.88,1.12,10.9,3.75a15.22,15.22,0,0,1,4.79,10.5.43.43,0,0,1-.35.44,93.3,93.3,0,0,1-22.86,2.12,35.23,35.23,0,0,1-11.31-2.19c-3.58-1.4-6.89-4.28-7.81-8.19l-.7-2.77a10.38,10.38,0,0,0-.91-2.65,25,25,0,0,0-2.82-4.87,41.29,41.29,0,0,0-8.19-7.82A79.64,79.64,0,0,0,491.93,109Z" transform="translate(-69.5 -73.39)"/><path class="cls-1" d="M398.1,136.59a40.47,40.47,0,0,1-12.22,8.54,37.46,37.46,0,0,1-14.76,3.45,23,23,0,0,1-3.85-.1,21,21,0,0,1-3.84-.46l-3.8-.78L356,146l-1.82-.66-1.71-.88L349,142.66c-2.2-1.31-4.26-2.83-6.4-4.25l1.59.56-34.34.86-34.34.31-34.34.29c-11.45,0-22.89-.15-34.34-.21l-34.34-.28c-11.45,0-22.89-.5-34.34-.73q-34.34-.73-68.67-2.55v-.45L206.85,136l137.35.1a.3.3,0,0,1,.17.05h0c2,1.39,3.94,2.9,6,4.21l3.21,1.76,1.61.88,1.71.67,3.41,1.33,3.55.87a19.33,19.33,0,0,0,3.61.58,21.38,21.38,0,0,0,3.64.24A36,36,0,0,0,385.43,144a41.58,41.58,0,0,0,12.36-7.72Z" transform="translate(-69.5 -73.39)"/><path class="cls-1" d="M491.84,135.09a121,121,0,0,0-15.46-10.33,88.47,88.47,0,0,0-16.5-7.65c-11.33-3.86-23.38-5.54-34.64-2.9-11.38,2.4-21.85,8.92-32.7,15-5.46,3.17-11.72,6.19-18.45,6.78a32.88,32.88,0,0,1-18.68-4.66l.17-.41c5.73,2.36,12,3.76,18.16,2.74s11.75-4,16.93-7.37c10.45-6.72,21.2-13.7,33.59-16.49s25.37-.71,36.93,4a95.34,95.34,0,0,1,31,20.89Z" transform="translate(-69.5 -73.39)"/><path class="cls-1" d="M492.06,109c-6.92,3-13.71,6.4-19.37,11a37.13,37.13,0,0,0-7.42,7.54L464,129.77c-.4.73-.63,1.52-1,2.26a10.06,10.06,0,0,0-.61,2.31l-.61,2.94a13.91,13.91,0,0,1-3.68,6.32,18.21,18.21,0,0,1-5.83,3.73,38.91,38.91,0,0,1-12.24,2.55,94.19,94.19,0,0,1-23.61-2.06h0a3.83,3.83,0,0,1-3.08-3.91,19.11,19.11,0,0,1,1.72-7.23,17.33,17.33,0,0,1,4.43-6c3.95-3.34,8.94-4.42,13.32-4.44,8.8.34,16.5,3.26,23.62,6.68a139.86,139.86,0,0,1,20.48,11.79,69.45,69.45,0,0,1,9,7.82c2.7,2.87,5.33,6,6.37,10l-.44.1c-1.34-3.52-4.15-6.41-6.93-9a67.27,67.27,0,0,0-9.24-6.92A138.49,138.49,0,0,0,455,136.11c-7.09-2.95-14.5-5.6-22.18-5.67-3.78.1-7.65,1-10.51,3.5a14.3,14.3,0,0,0-4.55,9.94l-.35-.43a92.93,92.93,0,0,0,22.42,2.22,34.81,34.81,0,0,0,11-2c3.45-1.29,6.59-3.82,7.62-7.42a37.71,37.71,0,0,1,1.58-5.47c.43-.86.77-1.77,1.27-2.58l1.6-2.39a38.81,38.81,0,0,1,8.4-7.7,75.13,75.13,0,0,1,20.59-9.54Z" transform="translate(-69.5 -73.39)"/><path class="cls-1" d="M483.27,91.64a38.21,38.21,0,0,0,.56,5.34,23.66,23.66,0,0,0,1.69,5,13.27,13.27,0,0,0,3,4.07,4.13,4.13,0,0,0,3.49,1.33c1.85-.43,3.24-3.42,3.9-6.36a38,38,0,0,0,1-9.42,37.79,37.79,0,0,0-1-9.43c-.65-2.94-2.05-5.94-3.92-6.37a4.15,4.15,0,0,0-3.5,1.34,13.17,13.17,0,0,0-3,4.08,23.5,23.5,0,0,0-1.69,5A38.22,38.22,0,0,0,483.27,91.64Zm-.45,0a31.52,31.52,0,0,1,1.73-10.74,16.45,16.45,0,0,1,2.63-4.82,5.73,5.73,0,0,1,9.69,0,16.54,16.54,0,0,1,2.69,4.82,32.43,32.43,0,0,1,0,21.56,16.54,16.54,0,0,1-2.69,4.82,5.73,5.73,0,0,1-9.69,0,16.45,16.45,0,0,1-2.63-4.82A31.53,31.53,0,0,1,482.82,91.64Z" transform="translate(-69.5 -73.39)"/></svg>